<svg xmlns="http://www.w3.org/2000/svg" version="1.1" xmlns:xlink="http://www.w3.org/1999/xlink" xmlns:svgjs="http://svgjs.dev/svgjs" width="1000" height="199" viewBox="0 0 1000 199"><g transform="matrix(1,0,0,1,-0.6060606060606801,0.097895823488102)"><svg viewBox="0 0 396 79" data-background-color="#77968c" preserveAspectRatio="xMidYMid meet" height="199" width="1000" xmlns="http://www.w3.org/2000/svg" xmlns:xlink="http://www.w3.org/1999/xlink"><defs></defs><g id="tight-bounds" transform="matrix(1,0,0,1,0.24000000000003752,-0.038863166108342284)"><svg viewBox="0 0 395.5199999999999 79.07772633221668" height="79.07772633221668" width="395.5199999999999"><g><svg viewBox="0 0 598.2397032836985 119.60820069107713" height="79.07772633221668" width="395.5199999999999"><g><rect width="9.953677708731746" height="119.60820069107713" x="166.70927764634965" y="0" fill="#63e2b7" opacity="1" stroke-width="0" stroke="transparent" fill-opacity="1" class="rect-o-0" data-fill-palette-color="primary" rx="1%" id="o-0" data-palette-color="#63e2b7"></rect></g><g transform="matrix(1,0,0,1,202.71970328369855,0.2975328375399897)"><svg viewBox="0 0 395.52 119.01313501599715" height="119.01313501599715" width="395.52"><g><svg viewBox="0 0 395.52 119.01313501599715" height="119.01313501599715" width="395.52"><g><svg viewBox="0 0 395.52 119.01313501599715" height="119.01313501599715" width="395.52"><g transform="matrix(1,0,0,1,0,0)"><svg width="395.52" viewBox="5.760000228881836 -37.840003967285156 137.36001586914062 38.33000564575195" height="119.01313501599715" data-palette-color="#63e2b7"><svg></svg><g class="undefined-text-0" data-fill-palette-color="primary" id="text-0"><path d="M5.76 0v-37.23c5.293-0.407 9.737-0.61 13.33-0.61v0h0.49c3.92 0 6.67 0.877 8.25 2.63v0c1.32 1.52 1.98 3.997 1.98 7.43v0c0 4.393-0.627 7.663-1.88 9.81v0c-1.287 2.18-3.42 3.547-6.4 4.1v0c0.553 0.687 1.1 1.403 1.64 2.15v0l1.44 2.08 6.42 9.64h-4.88l-5.62-8.84c-1.56-2.373-2.713-3.943-3.46-4.71v0h-0.27c-1.16-0.013-2.277-0.037-3.35-0.07v0l-3.54-0.15v13.77zM9.91-34.13v17.06c1.713 0.087 4.4 0.13 8.06 0.13v0c3.013 0 5.063-0.847 6.15-2.54v0c0.927-1.48 1.39-4.07 1.39-7.77v0c0-3.107-0.69-5.14-2.07-6.1v0c-0.813-0.567-1.707-0.883-2.68-0.95-0.967-0.067-1.81-0.1-2.53-0.1-0.727 0-1.427 0.003-2.1 0.01-0.68 0.007-1.353 0.02-2.02 0.04-0.667 0.013-1.343 0.037-2.03 0.07v0zM37.44-0.04c-0.3-0.333-0.49-0.707-0.57-1.12-0.087-0.413-0.13-0.943-0.13-1.59 0-0.64 0.047-1.163 0.14-1.57 0.087-0.407 0.243-0.723 0.47-0.95v0c0.38-0.427 0.99-0.64 1.83-0.64 0.847 0 1.453 0.047 1.82 0.14 0.367 0.087 0.657 0.253 0.87 0.5v0c0.373 0.407 0.56 1.243 0.56 2.51v0c0 1.273-0.147 2.08-0.44 2.42v0c-0.453 0.533-1.25 0.8-2.39 0.8v0c-1.14 0-1.86-0.167-2.16-0.5zM54.69 0v-33.86l-5.91 0.71-0.34-3.37 10.4-1.32v37.84zM86.21 0.49h-1.52c-5.713 0-9.343-1.823-10.89-5.47v0c-0.907-2.133-1.393-4.95-1.46-8.45v0c-0.033-1.64-0.05-3.38-0.05-5.22v0-1.47c0-4.36 0.18-7.393 0.54-9.1 0.353-1.713 0.803-3.07 1.35-4.07 0.547-1 1.277-1.833 2.19-2.5v0c1.84-1.367 4.613-2.05 8.32-2.05v0h1.52c3.953 0 6.873 0.667 8.76 2v0c2.347 1.673 3.6 5.133 3.76 10.38v0c0.047 1.627 0.07 3.407 0.07 5.34v0 1.47c0 4.52-0.15 7.657-0.45 9.41-0.3 1.747-0.71 3.19-1.23 4.33-0.52 1.14-1.253 2.11-2.2 2.91v0c-1.933 1.66-4.837 2.49-8.71 2.49zM84.69-3.15h1.47c1.753 0 3.173-0.197 4.26-0.59 1.08-0.387 1.927-1.07 2.54-2.05 0.607-0.973 1.017-2.293 1.23-3.96 0.213-1.673 0.32-3.787 0.32-6.34v0-4.03c0-2.487-0.05-4.617-0.15-6.39-0.1-1.773-0.407-3.223-0.92-4.35-0.507-1.12-1.307-1.947-2.4-2.48-1.093-0.527-2.623-0.79-4.59-0.79v0h-2.05c-3.533 0-5.78 1.107-6.74 3.32v0c-0.6 1.413-0.933 3.143-1 5.19-0.067 2.04-0.1 3.873-0.1 5.5v0 4.03c0 4.947 0.523 8.307 1.57 10.08v0c1.133 1.907 3.32 2.86 6.56 2.86zM108.34-0.04c-0.3-0.333-0.493-0.707-0.58-1.12-0.08-0.413-0.12-0.943-0.12-1.59 0-0.64 0.047-1.163 0.14-1.57 0.087-0.407 0.243-0.723 0.47-0.95v0c0.373-0.427 0.983-0.64 1.83-0.64 0.847 0 1.453 0.047 1.82 0.14 0.367 0.087 0.657 0.253 0.87 0.5v0c0.373 0.407 0.56 1.243 0.56 2.51v0c0 1.273-0.147 2.08-0.44 2.42v0c-0.453 0.533-1.25 0.8-2.39 0.8v0c-1.14 0-1.86-0.167-2.16-0.5zM118.82-2.47l1.61-3.41c3.7 1.953 7.313 2.93 10.84 2.93v0c4.107 0 6.51-1.31 7.21-3.93v0c0.227-0.867 0.34-1.86 0.34-2.98v0-0.96c0-1.133-0.083-2.05-0.25-2.75-0.16-0.7-0.5-1.27-1.02-1.71v0c-0.847-0.733-2.85-1.343-6.01-1.83v0c-2.813-0.44-4.757-0.857-5.83-1.25-1.073-0.393-1.957-0.82-2.65-1.28-0.693-0.467-1.283-1.05-1.77-1.75v0c-1.007-1.46-1.51-3.487-1.51-6.08v0-0.24c0-5.373 2.227-8.587 6.68-9.64v0c1.42-0.327 3.023-0.49 4.81-0.49v0h0.32c4.187 0 7.607 0.6 10.26 1.8v0l-1.27 3.74c-3.207-1.387-6.163-2.08-8.87-2.08v0h-0.22c-2.973 0-5.023 0.563-6.15 1.69v0c-0.94 0.947-1.41 2.583-1.41 4.91v0 0.09c0 2.653 0.73 4.397 2.19 5.23v0c0.993 0.533 2.773 1.007 5.34 1.42 2.56 0.407 4.467 0.75 5.72 1.03 1.253 0.287 2.32 0.757 3.2 1.41v0c1.827 1.367 2.74 3.96 2.74 7.78v0 0.32c0 5.847-2.353 9.33-7.06 10.45v0c-1.447 0.36-2.813 0.54-4.1 0.54-1.287 0-2.457-0.047-3.51-0.14-1.047-0.087-2.117-0.243-3.21-0.47v0c-2.553-0.52-4.693-1.303-6.42-2.35z" data-fill-palette-color="primary" fill="#63e2b7" opacity="1"></path></g></svg></g></svg></g></svg></g></svg></g><g transform="matrix(1,0,0,1,0,0.2975328375399826)"><svg viewBox="0 0 140.6525297177325 119.01313501599716" height="119.01313501599716" width="140.6525297177325"><g><svg xmlns="http://www.w3.org/2000/svg" xmlns:xlink="http://www.w3.org/1999/xlink" version="1.1" x="0" y="0" viewBox="0 13.42199993133545 100 84.61499786376953" enable-background="new 0 0 100 100" xml:space="preserve" height="119.01313501599716" width="140.6525297177325" class="icon-icon-0" data-fill-palette-color="accent" id="icon-0"><g fill="#63e2b7" data-fill-palette-color="accent"><path d="M0 13.422v84.615h100V13.422H0zM92.308 90.346H7.692V28.807h84.615V90.346z" fill="#63e2b7" data-fill-palette-color="accent"></path><rect x="42.002" y="66.065" width="26.488" height="7.775" fill="#63e2b7" data-fill-palette-color="accent"></rect><polygon points="15.521,66.064 41.988,55.549 41.988,55.527 42.002,55.533 42.002,47.181 41.988,47.187 41.988,47.165    15.521,36.65 15.515,45.014 31.487,51.357 15.515,57.701  " fill="#63e2b7" data-fill-palette-color="accent"></polygon></g></svg></g></svg></g></svg></g></svg><rect width="395.5199999999999" height="79.07772633221668" fill="none" stroke="none" visibility="hidden"></rect></g></svg></g></svg>